<?xml version="1.0" encoding="UTF-8"?><svg id="Capa_2" xmlns="http://www.w3.org/2000/svg" viewBox="0 0 23.96 23.96"><defs><style>.cls-1{fill:#fff;}</style></defs><g id="Capa_1-2"><g><path class="cls-1" d="M15.32,8.23c0-.39-.15-.75-.42-1.03-.56-.57-1.48-.57-2.05,0l-4.79,4.77,4.77,4.93c.28,.29,.66,.44,1.04,.44s.73-.13,1.01-.41c.28-.27,.44-.65,.44-1.04s-.14-.74-.41-1.01l-2.78-2.87,2.76-2.75c.27-.27,.43-.64,.43-1.02Z"/><path class="cls-1" d="M11.98,0C5.38,0,0,5.37,0,11.98s5.38,11.98,11.98,11.98,11.98-5.37,11.98-11.98S18.59,0,11.98,0Zm0,22.36c-5.72,0-10.38-4.66-10.38-10.38S6.26,1.6,11.98,1.6s10.38,4.66,10.38,10.38-4.66,10.38-10.38,10.38Z"/></g></g></svg>