<?xml version="1.0" encoding="UTF-8"?><svg id="Capa_2" xmlns="http://www.w3.org/2000/svg" viewBox="0 0 185.56 50.8"><defs><style>.cls-1{fill:#fff;}</style></defs><g id="Capa_1-2"><g><path class="cls-1" d="M146.21,0c.23,.82,.43,1.55,.64,2.29,1.06,3.8,2.32,7.54,3.8,11.2,1.19,2.96,2.54,5.86,4.06,8.67,2.37,4.39,5.14,8.52,8.42,12.3,.16,.18,.32,.27,.56,.28,.89,.05,1.78,.11,2.67,.2,2.05,.21,4.08,.51,5.99,1.33,1.05,.45,1.99,1.05,2.71,1.96,.33,.42,.6,.88,.77,1.39,.03,.09,.04,.18,.06,.28-.26,.11-.48,.06-.71,0-.21-.05-.43-.1-.65-.1-1.87,0-3.74,.02-5.62,.03-.1,0-.21,.02-.33,.07,2.48,2.26,5.17,4.22,8.04,5.96,2.85,1.73,5.84,3.17,8.94,4.47-.3,.06-.59,.13-.9,.18-1.77,.24-3.54,.38-5.33,.26-3.36-.21-6.57-1.02-9.67-2.3-2.35-.97-4.57-2.2-6.69-3.6-1.65-1.08-3.33-2.1-5.14-2.89-.78-.34-1.58-.65-2.43-.77-.38-.06-.76-.07-1.15-.1-.93-.06-1.86-.09-2.78-.18-.56-.05-1.13-.15-1.68-.3-.56-.15-.74-.45-.75-1.09h18.23c-.08-.13-.11-.21-.16-.26-1.25-1.39-2.51-2.77-3.76-4.16-.13-.14-.27-.19-.45-.2-.99-.04-1.98-.06-2.97-.16-2.8-.28-5.51-.91-8.09-2.07-1.87-.84-3.58-1.92-5.1-3.28-1.84-1.65-3.28-3.6-4.34-5.83-.79-1.67-1.33-3.41-1.63-5.22-.26-1.55-.36-3.12-.28-4.7,.11-2.24,.53-4.42,1.29-6.53,.91-2.52,2.24-4.79,4.08-6.75,.1-.11,.21-.21,.36-.36"/><path class="cls-1" d="M26.46,39.81h-6.03c-.05-.12-.1-.24-.15-.36-.59-1.59-1.19-3.17-1.78-4.76-.14-.37-.14-.37-.53-.37-3.09,0-6.17,0-9.26,0-.35,0-.36,0-.48,.33-.6,1.6-1.19,3.2-1.79,4.8-.14,.38-.07,.39-.55,.39H0c.06-.16,.09-.29,.14-.4,1.41-3.47,2.83-6.94,4.24-10.41,2.01-4.93,4.01-9.85,6.02-14.77,.26-.63,.11-.53,.79-.54,1.55,0,3.1,0,4.65,0,.36,0,.36,0,.48,.32,1.79,4.55,3.57,9.09,5.36,13.64,1.49,3.8,2.99,7.6,4.48,11.39,.09,.23,.18,.46,.29,.75M9.98,30.06c.63,.08,6.56,.06,6.86-.03-1.14-2.94-2.28-5.89-3.43-8.82-.03,0-.07,0-.1,0-1.11,2.94-2.21,5.88-3.33,8.85"/><path class="cls-1" d="M66.53,27.17c.26-.76-.12-1.68-.86-2.12-.6-.36-1.25-.53-1.93-.61-1.4-.16-2.8-.12-4.19,.06-1.18,.15-2.35,.34-3.52,.52-.11,.02-.22,.02-.38,.03-.02-1.35-.04-2.68-.06-4.04,.16-.04,.31-.08,.47-.11,1.4-.24,2.8-.51,4.21-.7,1.21-.17,2.44-.23,3.67-.16,1.37,.07,2.71,.28,3.98,.82,1.8,.77,3.04,2.08,3.83,3.86,.14,.33,.2,.65,.2,1.01,0,4.51,0,9.01,0,13.52v.53c-.33,.11-4.75,.13-5.15,.02v-1.87c-.2,.14-.33,.22-.45,.31-1.16,.83-2.4,1.47-3.78,1.85-1.53,.42-3.08,.52-4.61,.06-2.62-.79-4.14-2.55-4.55-5.25-.17-1.12-.07-2.22,.36-3.28,.52-1.27,1.45-2.16,2.64-2.82,1.22-.67,2.54-1.03,3.9-1.26,1.91-.31,3.84-.39,5.78-.32,.11,0,.22,0,.33,0,.04,0,.07-.01,.13-.02m-.18,4.21c-.09-.02-.14-.04-.19-.04-1.41-.08-2.82-.09-4.23,.08-.74,.09-1.47,.24-2.13,.59-.6,.32-1.03,.78-1.12,1.48-.11,.89-.05,1.39,.91,1.95,.18,.11,.37,.19,.57,.27,.81,.31,1.66,.4,2.52,.32,.85-.09,1.64-.36,2.3-.94,1.12-.98,1.41-2.27,1.37-3.72"/><path class="cls-1" d="M128.39,27.27c.14-.67,0-1.26-.44-1.77-.35-.41-.83-.62-1.34-.77-.68-.2-1.38-.27-2.09-.3-1.14-.04-2.28,.04-3.41,.2-1.19,.16-2.37,.33-3.59,.5-.02-.06-.05-.13-.05-.21,0-1.23,0-2.45,0-3.68,0-.05,.02-.1,.03-.19,.24-.08,.49-.17,.75-.24,1.31-.37,2.65-.62,4.01-.73,2.43-.19,4.83-.03,7.14,.79,1.11,.39,2.13,.94,2.97,1.78,.82,.82,1.23,1.8,1.23,2.97,0,4.36,0,8.71,0,13.07,0,.26,0,.52,0,.78,0,.1-.02,.19-.02,.28-.3,.09-4.63,.1-5.06,.01v-1.83c-.21,.14-.35,.23-.49,.32-1.09,.75-2.25,1.34-3.51,1.73-1.17,.37-2.38,.52-3.59,.39-3.08-.32-5.08-2.35-5.58-5.03-.17-.91-.21-1.82-.03-2.73,.33-1.67,1.29-2.88,2.75-3.73,1.01-.58,2.1-.93,3.23-1.17,2-.43,4.03-.49,6.06-.46,.33,0,.67,0,1.03,0m-.45,4.13c-.09-.02-.14-.04-.18-.04-1.54-.04-3.07-.1-4.6,.15-.62,.1-1.24,.25-1.8,.56-.6,.33-1,.81-1.09,1.5-.11,.9,.03,1.36,.83,1.85,.25,.15,.53,.28,.8,.38,.83,.29,1.7,.36,2.56,.24,.94-.14,1.79-.5,2.44-1.23,.86-.97,1.09-2.13,1.04-3.41"/><path class="cls-1" d="M80.26,39.8h-5.14c-.07-6.41-.11-12.82-.17-19.21,.3-.08,4.62-.1,5.18-.03v1.98c.2,.05,.28-.08,.38-.16,.95-.73,1.98-1.31,3.13-1.66,1.71-.53,3.43-.63,5.15-.06,2.15,.7,3.52,2.17,4.22,4.3,.29,.88,.4,1.79,.41,2.7,.02,3.91,.03,7.82,.04,11.73,0,.11,0,.22,0,.32-.31,.09-5,.1-5.4,0v-.46c0-3.95,0-7.9,0-11.85,0-1.62-.99-2.43-2.24-2.68-1.62-.32-3.15,0-4.58,.82-.14,.08-.26,.19-.39,.28-.42,.3-.61,.68-.6,1.23,.02,4.06,.01,8.12,.01,12.18v.56Z"/><path class="cls-1" d="M22.53,20.49c1.89-.02,3.73,0,5.6,0,1.65,4.18,3.3,8.34,4.95,12.51,.19-.05,.19-.21,.24-.32,.62-1.54,1.23-3.08,1.85-4.61,.96-2.4,1.93-4.8,2.89-7.19,.04-.1,.09-.2,.14-.32h5.64c-.03,.11-.05,.2-.09,.29-1.63,3.89-3.27,7.77-4.91,11.66-.96,2.27-1.91,4.53-2.86,6.8-.02,.06-.05,.11-.07,.17-.07,.25-.21,.34-.48,.34-1.49-.02-2.97-.02-4.46,0-.27,0-.39-.1-.49-.34-1.35-3.24-2.71-6.48-4.07-9.72-1.23-2.94-2.47-5.88-3.7-8.83-.05-.12-.09-.25-.16-.44"/><path class="cls-1" d="M112.71,34.53c-.02,1.59-.04,3.14-.06,4.73-.63,.16-1.25,.33-1.88,.46-1.64,.35-3.3,.52-4.98,.46-1.75-.07-3.44-.39-5.02-1.18-1.77-.89-3.07-2.23-3.89-4.03-.56-1.24-.84-2.55-.95-3.91-.08-1.08-.09-2.15,.09-3.22,.4-2.31,1.5-4.2,3.38-5.61,1.42-1.06,3.03-1.64,4.77-1.93,1.32-.22,2.64-.24,3.96-.13,1.56,.12,3.09,.42,4.59,.86,.06,.02,.11,.04,.2,.07v4.94c-.11-.05-.21-.1-.31-.15-.99-.54-2.02-.98-3.12-1.26-1.29-.32-2.6-.41-3.89,0-2.16,.67-3.47,2.17-4.02,4.33-.3,1.15-.25,2.31,.18,3.43,.65,1.69,1.91,2.7,3.64,3.14,1.08,.28,2.18,.28,3.28,.12,1.28-.18,2.51-.54,3.71-1.01,.09-.03,.18-.06,.32-.1"/><path class="cls-1" d="M45.29,20.54h5.07v19.19c-.27,.08-4.49,.13-5.14,.06,0-.12-.03-.25-.03-.38,.01-3.03,.02-6.06,.04-9.1,.02-3.12,.04-6.24,.06-9.36v-.42"/><path class="cls-1" d="M47.74,12.27c1.39-.04,2.96,1.1,2.98,2.97,.02,1.67-1.34,3.02-3.01,3.02-1.65,0-3-1.36-2.98-3.02,.03-1.9,1.6-3.03,3.01-2.97"/></g></g></svg>