<?xml version="1.0" encoding="UTF-8"?><svg id="Capa_2" xmlns="http://www.w3.org/2000/svg" xmlns:xlink="http://www.w3.org/1999/xlink" viewBox="0 0 130.07 213.63"><defs><style>.cls-1{fill:#fff;}.cls-2{clip-path:url(#clippath-2);}.cls-3{clip-path:url(#clippath-1);}.cls-4{fill:url(#Degradado_sin_nombre_125);}.cls-5{fill:url(#Degradado_sin_nombre_125-2);}.cls-6{clip-path:url(#clippath);}.cls-7{fill:none;}.cls-8{fill:url(#Degradado_sin_nombre_125-3);}</style><clipPath id="clippath"><polygon class="cls-7" points="65.96 21.01 44.83 16.67 59.74 32.82 53.37 51.06 78.71 42.93 97.85 59 90.16 38.42 101.87 33.63 86.29 28.05 76.31 1.35 65.96 21.01"/></clipPath><linearGradient id="Degradado_sin_nombre_125" x1="-1618.37" y1="2682.46" x2="-1617.37" y2="2682.46" gradientTransform="translate(92360.73 153044.18) scale(57.04 -57.04)" gradientUnits="userSpaceOnUse"><stop offset="0" stop-color="#e0b140"/><stop offset="0" stop-color="#e0b140"/><stop offset=".43" stop-color="#ffc863"/><stop offset=".69" stop-color="#efc976"/><stop offset="1" stop-color="#e4b545"/></linearGradient><clipPath id="clippath-1"><polygon class="cls-7" points="36.24 35.81 28.03 34.07 34.44 40.68 32.48 46.03 38.24 42.32 42.47 45.78 40.84 40.66 45.37 37.75 39.95 36.6 38.39 31.2 36.24 35.81"/></clipPath><linearGradient id="Degradado_sin_nombre_125-2" x1="-1586.58" y1="2694.05" x2="-1585.58" y2="2694.05" gradientTransform="translate(27533.82 46743.96) scale(17.34 -17.34)" xlink:href="#Degradado_sin_nombre_125"/><clipPath id="clippath-2"><polygon class="cls-7" points="92.72 4.99 84.16 3.17 91.25 10.49 89.08 16.41 95.46 12.31 100.4 16.3 98.33 10.47 103.34 7.25 97.35 5.97 95.62 0 92.72 4.99"/></clipPath><linearGradient id="Degradado_sin_nombre_125-3" x1="-1590.99" y1="2692.44" x2="-1589.99" y2="2692.44" gradientTransform="translate(30610.77 51668.63) scale(19.19 -19.19)" xlink:href="#Degradado_sin_nombre_125"/></defs><g id="Capa_1-2"><g><g class="cls-6"><rect class="cls-4" x="44.83" y="1.35" width="57.04" height="57.66"/></g><g class="cls-3"><rect class="cls-5" x="28.03" y="31.2" width="17.34" height="14.82"/></g><path class="cls-1" d="M129.24,84.72l.27-.04c-3.38-20.63-15.33-36.76-31.85-46.13l-2.8,2.24,7.66,24.29-24.48-18.68-29.34,9.34,7.47-22.23-2.24-2.8c-1.79,.29-2.97,.51-4.77,.96-2.83,.7-4.94,1.62-7.62,2.7,1.49,.93,8.02,2.29,8.02,2.29l-5.35,4.58,.74,7.41-7.1-2.8-8.41,4.48,2.24-8.78s-.37-.75-1.51-1.65C12.51,50.98,.72,70.28,.03,92.76c-.12,3.92,.1,7.94,.68,12.02l.15-.02c1.8,12.32,6.05,23.87,11.42,35.02,10.1,20.95,23.24,39.83,38.83,57.07,4.59,5.08,8.8,10.5,13.16,15.79v-81.17h30.21c10.79,0,19.45,3.17,24.12,9.36,2.78-6.04,5.18-12.25,7.13-18.7,3.69-12.22,5.54-24.65,3.51-37.41m-64.26,39.63c-14.72-.04-26.78-10.87-28.93-25.08-.23-1.52-.35-3.09-.34-4.68,.06-16.31,13.21-29.5,29.41-29.5,14.68,0,26.87,10.91,29.04,25.11,0,0,0,0,0,0,.23,1.5,.35,3.04,.34,4.61-.04,16.41-13.21,29.59-29.52,29.54"/><path class="cls-1" d="M68.41,136.69h27.05c14.71,0,24.99,6.89,24.99,20.12,0,6.46-2.98,13.02-8.54,16.36v.22c8.43,2.69,11.52,10.54,11.52,17.32,0,16.79-13.37,22.92-27.98,22.92h-27.05v-76.94Zm27.26,29.81c4.52,0,6.48-3.44,6.48-7.1s-1.95-6.56-6.79-6.56h-8.95v13.67h9.26Zm1.54,30.99c5.24,0,7.82-3.77,7.82-8.07s-2.47-7.85-7.71-7.85h-10.9v15.93h10.8Z"/><g class="cls-2"><rect class="cls-8" x="84.16" width="19.19" height="16.41"/></g></g></g></svg>