<?xml version="1.0" encoding="UTF-8"?>
<svg id="Capa_2" data-name="Capa 2" xmlns="http://www.w3.org/2000/svg" viewBox="0 0 11.85 12.39">
  <defs>
    <style>
      .cls-1 {
        fill: #266dc7;
      }
    </style>
  </defs>
  <g id="Capa_1-2" data-name="Capa 1">
    <path class="cls-1" d="M11.85,11.86l-3.77-3.99c1.68-1.79,1.71-4.6,0-6.41C6.32-.41,3.35-.5,1.47,1.28,.56,2.14,.04,3.3,0,4.55c-.04,1.25,.42,2.44,1.28,3.35,.92,.97,2.16,1.46,3.41,1.46,1,0,1.99-.34,2.83-.98l3.78,4,.56-.53ZM1.84,7.37c-.72-.76-1.1-1.76-1.07-2.8s.46-2.02,1.23-2.74c.76-.71,1.72-1.07,2.69-1.07,1.04,0,2.08,.41,2.85,1.23,1.48,1.57,1.41,4.06-.16,5.54-1.57,1.48-4.06,1.41-5.54-.16Z"/>
  </g>
</svg>