<?xml version="1.0" encoding="UTF-8"?><svg id="Capa_2" xmlns="http://www.w3.org/2000/svg" viewBox="0 0 58.13 58.13"><defs><style>.cls-1{fill:#fff;}</style></defs><g id="Capa_1-2"><g><path class="cls-1" d="M29.07,58.13C13.04,58.13,0,45.09,0,29.07S13.04,0,29.07,0s29.07,13.04,29.07,29.07-13.04,29.07-29.07,29.07m0-55.98C14.23,2.15,2.15,14.23,2.15,29.07s12.07,26.91,26.92,26.91,26.91-12.07,26.91-26.91S43.91,2.15,29.07,2.15"/><polygon class="cls-1" points="13.98 27.9 27.84 27.9 27.84 12.52 30.35 12.52 30.35 27.9 44.16 27.9 44.16 30.24 30.35 30.24 30.35 45.62 27.84 45.62 27.84 30.24 13.98 30.24 13.98 27.9"/></g></g></svg>