<?xml version="1.0" encoding="utf-8"?>
<!-- Generator: Adobe Illustrator 27.0.1, SVG Export Plug-In . SVG Version: 6.00 Build 0)  -->
<svg version="1.1" id="Capa_2_00000059997348098455340050000000364882192688477879_"
	 xmlns="http://www.w3.org/2000/svg" xmlns:xlink="http://www.w3.org/1999/xlink" x="0px" y="0px" viewBox="0 0 110.7 150.6"
	 style="enable-background:new 0 0 110.7 150.6;" xml:space="preserve">
<style type="text/css">
	.st0{fill:#636363;}
</style>
<g id="Capa_1-2">
	<g>
		<path class="st0" d="M79.8,130.1L79.8,130.1c1.4-0.9,2.2-2.6,2.2-4.3c0-3.4-2.7-5.2-6.4-5.2h-7v19.8h7c3.8,0,7.2-1.6,7.2-5.9
			C82.8,132.8,82,130.8,79.8,130.1z M73.3,124.8h2.3c1.2,0,1.8,0.8,1.8,1.7s-0.5,1.8-1.7,1.8h-2.4V124.8L73.3,124.8z M76,136.3h-2.8
			v-4.1h2.8c1.4,0,2,0.9,2,2S77.4,136.3,76,136.3z"/>
		<polygon class="st0" points="59.4,97.3 60.9,96.4 62,97.3 61.5,95.9 62.7,95.2 61.3,94.9 60.9,93.5 60.4,94.7 58.3,94.3 59.9,96 
					"/>
		<path class="st0" d="M84.3,107.3L84.3,107.3c-0.8-5.3-3.9-9.5-8.1-11.9L75.4,96l2,6.2l-6.3-4.8l-7.5,2.4l1.9-5.7l-0.6-0.7
			c-0.5,0.1-0.8,0.1-1.2,0.2c-0.7,0.2-1.3,0.4-2,0.7c0.4,0.2,2.1,0.6,2.1,0.6l-1.4,1.2l0.2,1.9l-1.8-0.7l-2.2,1.1l0.6-2.3
			c0,0-0.1-0.2-0.4-0.4c-4.5,2.9-7.6,7.8-7.8,13.6c0,1,0,2,0.2,3.1h0c0.5,3.2,1.5,6.1,2.9,9c2.6,5.4,6,10.2,10,14.7
			c1.2,1.3,2.3,2.7,3.4,4.1v-20.9h7.8c2.8,0,5,0.8,6.2,2.4c0.7-1.5,1.3-3.2,1.8-4.8C84.3,113.8,84.8,110.6,84.3,107.3L84.3,107.3z
			 M67.8,117.5L67.8,117.5c-3.8,0-6.9-2.8-7.5-6.5c-0.1-0.4-0.1-0.8-0.1-1.2c0-4.2,3.4-7.6,7.6-7.6c3.8,0,6.9,2.8,7.5,6.4
			c0.1,0.4,0.1,0.8,0.1,1.2C75.3,114.1,72,117.5,67.8,117.5L67.8,117.5z"/>
		<polygon class="st0" points="64.8,98.6 71.3,96.5 76.2,100.7 74.2,95.4 77.2,94.1 73.2,92.7 70.7,85.8 68,90.9 62.6,89.8 
			66.4,93.9 		"/>
		<polygon class="st0" points="73.9,89.7 75.6,88.7 76.9,89.7 76.3,88.2 77.6,87.4 76.1,87 75.6,85.5 74.9,86.8 72.7,86.3 
			74.5,88.2 		"/>
	</g>
</g>
<g id="Capa_1-2_00000173150752046379546070000014725923112126082747_">
	<g>
		<path class="st0" d="M28.8,130.1L28.8,130.1c1.4-0.9,2.2-2.6,2.2-4.3c0-3.4-2.6-5.2-6.4-5.2h-7v19.8h7c3.8,0,7.2-1.6,7.2-5.9
			C31.7,132.8,30.9,130.8,28.8,130.1z M22.2,124.8h2.3c1.2,0,1.8,0.8,1.8,1.7s-0.5,1.8-1.7,1.8h-2.4L22.2,124.8L22.2,124.8z
			 M25,136.3h-2.8v-4.1H25c1.4,0,2,0.9,2,2S26.3,136.3,25,136.3z"/>
		<polygon class="st0" points="8.4,97.3 9.8,96.4 10.9,97.3 10.5,95.9 11.7,95.2 10.3,94.9 9.9,93.5 9.3,94.7 7.2,94.3 8.9,96 		"/>
		<path class="st0" d="M33.2,107.3L33.2,107.3c-0.8-5.3-3.9-9.5-8.1-11.9L24.4,96l2,6.2l-6.3-4.8l-7.5,2.4l1.9-5.7l-0.6-0.7
			c-0.5,0.1-0.8,0.1-1.2,0.2c-0.7,0.2-1.3,0.4-2,0.7c0.4,0.2,2.1,0.6,2.1,0.6l-1.4,1.2l0.2,1.9l-1.8-0.7l-2.2,1.1l0.6-2.3
			c0,0-0.1-0.2-0.4-0.4c-4.5,2.9-7.6,7.8-7.8,13.6c0,1,0,2,0.2,3.1h0c0.5,3.2,1.5,6.1,2.9,9c2.6,5.4,6,10.2,10,14.7
			c1.2,1.3,2.3,2.7,3.4,4.1v-20.9h7.8c2.8,0,5,0.8,6.2,2.4c0.7-1.5,1.3-3.2,1.8-4.8C33.3,113.8,33.7,110.6,33.2,107.3L33.2,107.3z
			 M16.7,117.5L16.7,117.5c-3.8,0-6.9-2.8-7.5-6.5c-0.1-0.4-0.1-0.8-0.1-1.2c0-4.2,3.4-7.6,7.6-7.6c3.8,0,6.9,2.8,7.5,6.4
			c0.1,0.4,0.1,0.8,0.1,1.2C24.3,114.1,20.9,117.5,16.7,117.5L16.7,117.5z"/>
		<polygon class="st0" points="13.7,98.6 20.2,96.5 25.2,100.7 23.2,95.4 26.2,94.1 22.2,92.7 19.6,85.8 17,90.9 11.5,89.8 
			15.4,93.9 		"/>
		<polygon class="st0" points="22.9,89.7 24.5,88.7 25.8,89.7 25.3,88.2 26.6,87.4 25,87 24.6,85.5 23.8,86.8 21.6,86.3 23.5,88.2 
					"/>
	</g>
</g>
<g id="Capa_1-2_00000043437774013461658710000016218098509932198543_">
	<g>
		<path class="st0" d="M106,54.8L106,54.8c1.4-0.9,2.2-2.6,2.2-4.3c0-3.4-2.7-5.2-6.4-5.2h-6.9v19.8h6.9c3.8,0,7.2-1.6,7.2-5.9
			C109,57.5,108.2,55.5,106,54.8z M99.5,49.5h2.3c1.2,0,1.8,0.8,1.8,1.7S103,53,101.8,53h-2.4V49.5L99.5,49.5z M102.2,61h-2.8v-4.1
			h2.8c1.3,0,2,0.9,2,2S103.6,61,102.2,61z"/>
		<polygon class="st0" points="85.6,22 87.1,21.1 88.2,22 87.8,20.6 88.9,19.9 87.5,19.6 87.1,18.2 86.6,19.4 84.5,18.9 86.1,20.6 
					"/>
		<path class="st0" d="M110.5,32L110.5,32c-0.8-5.3-3.9-9.5-8.1-11.9l-0.7,0.6l2,6.2l-6.3-4.8l-7.5,2.4l1.9-5.7l-0.6-0.7
			c-0.5,0.1-0.8,0.1-1.2,0.2c-0.7,0.2-1.3,0.4-2,0.7c0.4,0.2,2.1,0.6,2.1,0.6l-1.4,1.2l0.2,1.9L87,22l-2.2,1.1l0.6-2.3
			c0,0-0.1-0.2-0.4-0.4c-4.5,2.9-7.6,7.8-7.8,13.6c0,1,0,2,0.2,3.1h0c0.5,3.2,1.6,6.1,2.9,9c2.6,5.4,6,10.2,10,14.7
			c1.2,1.3,2.3,2.7,3.4,4.1V44h7.8c2.8,0,5,0.8,6.2,2.4c0.7-1.5,1.3-3.2,1.8-4.8C110.5,38.4,111,35.2,110.5,32L110.5,32z M94,42.2
			L94,42.2c-3.8,0-6.9-2.8-7.5-6.5c-0.1-0.4-0.1-0.8-0.1-1.2c0-4.2,3.4-7.6,7.6-7.6c3.8,0,6.9,2.8,7.5,6.4c0.1,0.4,0.1,0.8,0.1,1.2
			C101.5,38.8,98.2,42.2,94,42.2L94,42.2z"/>
		<polygon class="st0" points="91,23.3 97.5,21.2 102.4,25.4 100.4,20.1 103.4,18.8 99.4,17.4 96.9,10.5 94.2,15.6 88.8,14.5 
			92.6,18.6 		"/>
		<polygon class="st0" points="100.2,14.4 101.8,13.3 103.1,14.4 102.5,12.9 103.8,12 102.3,11.7 101.8,10.2 101.1,11.5 98.9,11 
			100.7,12.9 		"/>
	</g>
</g>
<g id="Capa_1-2_00000075866547602596047750000015122855192327572864_">
	<g>
		<path class="st0" d="M48.9,54.8L48.9,54.8c1.4-0.9,2.2-2.6,2.2-4.3c0-3.4-2.6-5.2-6.4-5.2h-7v19.8h7c3.8,0,7.2-1.6,7.2-5.9
			C51.9,57.5,51.1,55.5,48.9,54.8z M42.4,49.5h2.3c1.2,0,1.8,0.8,1.8,1.7S45.9,53,44.8,53h-2.4L42.4,49.5L42.4,49.5z M45.2,61h-2.8
			v-4.1h2.8c1.3,0,2,0.9,2,2S46.5,61,45.2,61z"/>
		<polygon class="st0" points="28.5,22 30,21.1 31.1,22 30.7,20.6 31.8,19.9 30.4,19.6 30,18.2 29.5,19.4 27.4,18.9 29,20.6 		"/>
		<path class="st0" d="M53.4,32L53.4,32c-0.8-5.3-3.9-9.5-8.1-11.9l-0.7,0.6l2,6.2l-6.3-4.8l-7.5,2.4l1.9-5.7L34,18.1
			c-0.5,0.1-0.8,0.1-1.2,0.2c-0.7,0.2-1.3,0.4-2,0.7c0.4,0.2,2.1,0.6,2.1,0.6l-1.4,1.2l0.2,1.9L29.9,22l-2.2,1.1l0.6-2.3
			c0,0-0.1-0.2-0.4-0.4c-4.5,2.9-7.6,7.8-7.8,13.6c0,1,0,2,0.2,3.1h0c0.5,3.2,1.6,6.1,2.9,9c2.6,5.4,6,10.2,10,14.7
			c1.2,1.3,2.3,2.7,3.4,4.1V44h7.8c2.8,0,5,0.8,6.2,2.4c0.7-1.5,1.3-3.2,1.8-4.8C53.4,38.4,53.9,35.2,53.4,32L53.4,32z M36.9,42.2
			L36.9,42.2c-3.8,0-6.9-2.8-7.5-6.5c-0.1-0.4-0.1-0.8-0.1-1.2c0-4.2,3.4-7.6,7.6-7.6c3.8,0,6.9,2.8,7.5,6.4
			c0.1,0.4,0.1,0.8,0.1,1.2C44.5,38.8,41.1,42.2,36.9,42.2L36.9,42.2z"/>
		<polygon class="st0" points="33.9,23.3 40.4,21.2 45.3,25.4 43.3,20.1 46.4,18.8 42.3,17.4 39.8,10.5 37.1,15.6 31.7,14.5 
			35.5,18.6 		"/>
		<polygon class="st0" points="43.1,14.4 44.7,13.3 46,14.4 45.5,12.9 46.7,12 45.2,11.7 44.8,10.2 44,11.5 41.8,11 43.6,12.9 		"/>
	</g>
</g>
<g id="Capa_1-2_00000041268011017269142060000012262564188850387867_">
	<g>
		<path class="st0" d="M48.9,54.8L48.9,54.8c1.4-0.9,2.2-2.6,2.2-4.3c0-3.4-2.6-5.2-6.4-5.2h-7v19.8h7c3.8,0,7.2-1.6,7.2-5.9
			C51.9,57.5,51.1,55.5,48.9,54.8z M42.4,49.5h2.3c1.2,0,1.8,0.8,1.8,1.7S45.9,53,44.8,53h-2.4L42.4,49.5L42.4,49.5z M45.2,61h-2.8
			v-4.1h2.8c1.3,0,2,0.9,2,2S46.5,61,45.2,61z"/>
		<polygon class="st0" points="28.5,22 30,21.1 31.1,22 30.7,20.6 31.8,19.9 30.4,19.6 30,18.2 29.5,19.4 27.4,18.9 29,20.6 		"/>
		<path class="st0" d="M53.4,32L53.4,32c-0.8-5.3-3.9-9.5-8.1-11.9l-0.7,0.6l2,6.2l-6.3-4.8l-7.5,2.4l1.9-5.7L34,18.1
			c-0.5,0.1-0.8,0.1-1.2,0.2c-0.7,0.2-1.3,0.4-2,0.7c0.4,0.2,2.1,0.6,2.1,0.6l-1.4,1.2l0.2,1.9L29.9,22l-2.2,1.1l0.6-2.3
			c0,0-0.1-0.2-0.4-0.4c-4.5,2.9-7.6,7.8-7.8,13.6c0,1,0,2,0.2,3.1h0c0.5,3.2,1.6,6.1,2.9,9c2.6,5.4,6,10.2,10,14.7
			c1.2,1.3,2.3,2.7,3.4,4.1V44h7.8c2.8,0,5,0.8,6.2,2.4c0.7-1.5,1.3-3.2,1.8-4.8C53.4,38.4,53.9,35.2,53.4,32L53.4,32z M36.9,42.2
			L36.9,42.2c-3.8,0-6.9-2.8-7.5-6.5c-0.1-0.4-0.1-0.8-0.1-1.2c0-4.2,3.4-7.6,7.6-7.6c3.8,0,6.9,2.8,7.5,6.4
			c0.1,0.4,0.1,0.8,0.1,1.2C44.5,38.8,41.1,42.2,36.9,42.2L36.9,42.2z"/>
		<polygon class="st0" points="33.9,23.3 40.4,21.2 45.3,25.4 43.3,20.1 46.4,18.8 42.3,17.4 39.8,10.5 37.1,15.6 31.7,14.5 
			35.5,18.6 		"/>
		<polygon class="st0" points="43.1,14.4 44.7,13.3 46,14.4 45.5,12.9 46.7,12 45.2,11.7 44.8,10.2 44,11.5 41.8,11 43.6,12.9 		"/>
	</g>
</g>
</svg>
